<?xml version="1.0" encoding="utf-8"?>
<!-- Generator: Adobe Illustrator 23.0.3, SVG Export Plug-In . SVG Version: 6.00 Build 0)  -->
<svg version="1.1" id="Layer_1" xmlns="http://www.w3.org/2000/svg" xmlns:xlink="http://www.w3.org/1999/xlink" x="0px" y="0px"
	 viewBox="0 0 1200 1200" enable-background="new 0 0 1200 1200" xml:space="preserve">
<g>
	<path fill="#303030" d="M1119.898,464.123h-0.004c-26.486-49.898-60.044-96.774-94.491-131.994
		c-40.853-41.777-92.22-64.23-137.079-80.685c-103.722-38.044-208.344-56.966-310.625-56.273
		c-121.735,0.838-235.542,30.77-329.124,86.559C155.886,336.989,89.624,418.009,66.603,504.166
		c-11.975,37.64-23.858,87.246-11.129,139.063c2.598,10.551,6.164,20.638,10.634,30.077
		c20.452,104.746,113.501,331.542,534.372,331.542c185.16,0,326.488-46.158,420.066-137.192
		c74.911-72.874,102.318-157.904,111.876-219.067c2.879-5.606,5.389-11.305,7.492-17.026
		C1158.346,581.419,1151.424,523.52,1119.898,464.123z"/>
	<path fill="#EFD243" d="M326.6,634.858c-3.473-7.824,2.344-19.291,12.223-15.899c17.519,6.015,34.276,18.858,48.79,30.223
		c6.715,5.258,5.861,16.122,1.322,22.198c-4.913,6.575-14.671,8.698-21.809,4.354C351.768,666.388,333.994,651.517,326.6,634.858
		L326.6,634.858z M876.126,718.654c10.438,7.66,27.193-1.489,37.506-5.55c9.466-3.727,15.369-12.848,11.069-23.053
		c-3.997-9.485-15.22-13.158-24.232-8.168c-7.247,4.013-15.254,7.89-21.612,13.257C871.688,701.193,867.129,712.052,876.126,718.654
		L876.126,718.654z M581.466,334.831c15.881-3.327,32.408-8.881,46.874-16.321c17.138-8.814,2.098-33.732-14.989-25.642
		c-14.485,6.857-28.39,16.745-40.501,27.163C565.66,326.215,573.503,336.499,581.466,334.831L581.466,334.831z M885.124,533.561
		c11.247-13.851,11.954-38.542,13.758-55.717c1.505-14.327-23.055-17.802-25.35-3.431c-2.734,17.123-8.474,41.135-1.192,57.5
		C874.35,536.432,882.033,537.368,885.124,533.561L885.124,533.561z"/>
	<path fill="#26A9F9" d="M661.858,784.642c-4.675,4.883-14.703,2.943-15.997-4.223c-3.145-17.414,2.391-38.694,9.776-54.553
		c3.164-6.796,12.227-8.609,18.534-6.073c7.397,2.975,9.683,10.195,8.594,17.509C680.453,752.825,672.793,773.222,661.858,784.642
		L661.858,784.642z M347.882,503.449c3.883-9.805,4.249-20.592,3.433-31.022c-0.883-11.285-1.797-21.395-11.637-28.298
		c-5.744-4.029-13.818-0.829-17.256,4.525c-5.63,8.768-2.482,18.217-0.918,27.808c1.489,9.134,2.433,18.275,5.678,26.987
		C331.02,513.757,343.927,513.436,347.882,503.449L347.882,503.449z M235.228,680.657c4.637-4.338,9.15-9.179,13.119-14.128
		c4.383-5.465,10.303-10.67,11.915-17.656c2.542-11.02-8.397-18.385-18.052-13.878c-6.509,3.038-10.89,10.938-14.815,16.813
		c-3.85,5.762-6.946,12.348-9.39,18.821C214.155,680.825,228.279,687.157,235.228,680.657L235.228,680.657z M666.486,388.898
		c8.124,2.223,16.084,5.139,23.871,8.346c8.944,3.684,15.493,8.001,25.459,6.053c7.797-1.524,12.374-12.501,7.751-19.053
		c-10.893-15.439-37.183-14.822-54.394-15.201C657.727,368.792,655.514,385.897,666.486,388.898L666.486,388.898z"/>
	<path fill="#BA82D1" d="M741.004,305.084c-5.117-7.665,4.518-14.114,11.259-11.259c14.53,6.153,27.399,15.584,40.061,24.99
		c17.126,12.722-2.333,36.901-17.64,22.863C762.411,330.421,750.26,318.948,741.004,305.084L741.004,305.084z M496.526,772.366
		c1.817-5.389,5.818-10.895,8.63-15.924c3.195-5.716,7.066-10.787,9.418-16.933c3.677-9.607-9.451-19.698-17.824-13.703
		c-7.23,5.177-11.5,12.687-14.511,20.974c-2.928,8.058-2.263,15.089-1.878,23.398C480.795,779.547,493.538,781.227,496.526,772.366
		L496.526,772.366z M803.286,652.578c12.269,3.475,24.309,6.055,36.95,7.863c18.453,2.638,22.128-24.11,3.421-25.279
		c-12.826-0.801-25.237-0.711-38.041,0.197C796.042,636.039,793.369,649.769,803.286,652.578L803.286,652.578z M413.978,350.923
		c8.074,10.94,20.741,20.714,32.64,27.207c14.736,8.041,26.711-13.031,13.04-22.308c-10.386-7.048-24.633-14.046-37.093-16.068
		C416.868,338.83,409.587,344.974,413.978,350.923L413.978,350.923z"/>
	<path fill="#FFC0E1" d="M182.076,596.885c-1.285,4.159-7.395,6.658-10.565,2.789c-18.792-22.935-12.113-64.073-6.214-90.788
		c7.294-33.038,22.14-64.917,42.763-91.717c40.205-52.247,102.64-88.666,167.256-101.571c2.664-0.532,4.561,3.192,1.93,4.578
		c-52.914,27.868-103.013,57.902-141.763,104.792c-19.723,23.867-35.116,51.763-43.775,81.512c-4.63,15.907-7.195,32.153-7.67,48.71
		C183.642,568.959,186.178,583.607,182.076,596.885L182.076,596.885z M869.853,369.664c14.088,13.709,32.667,21.838,46.744,36.136
		c14.922,15.156,27.122,32.915,35.911,52.283c10.645,23.456,15.573,48.745,20.949,73.753c4.608,21.435,5.494,49.309,16.32,68.393
		c1.761,3.105,6.975,3.418,8.651,0c11.303-23.057,8.635-59.073,5.402-83.991c-3.58-27.588-12.417-55.207-25.689-79.664
		c-18.694-34.448-60.756-84.702-105.392-77.873C867.748,359.465,866.613,366.512,869.853,369.664L869.853,369.664z"/>
	<path fill="#D8BF9C" d="M760.915,559.619c-6.143,14.126-14.306,26.23-24.003,36.512c-3.815-14.745-24.475-54.675-136.432-54.675
		c-135.266,0-126.59,62.709-126.303,64.568c-7.762-6.147-14.88-13.147-21.162-21.086c-13.18-16.653-31.727-46.972-11.881-65.701
		c9.963-9.403,21.676-14.368,28.599-27.192c4.869-9.02,5.138-19.687,10.179-28.56c6.689-11.772,19.454-15.833,32.491-15.002
		c8.799,0.561,17.012,3.928,25.561,5.688c17.217,3.544,25.981-2.42,36.341-15.363c7.045-8.802,14.635-15.076,26.49-15.801
		c34.007-2.08,38.605,42.218,59.331,59.267c26.296,21.631,38.262-7.164,62.24-9.463c11.201-1.074,22.324,3.615,30.3,11.299
		C773.179,503.875,771.478,535.329,760.915,559.619z M1027.637,699.794c-16.195,13.418-32.735,27.328-44.345,45.089
		c-10.4,15.914-15.368,34.85-27.359,49.781c-26.738,33.293-66.51,18.601-102.435,15.549c-45.909-3.9-66.153,39.62-107.373,48.765
		c-43.359,9.619-77.489-31.86-121.061-12.025c-35.818,16.305-63.414,38.587-104.991,27.431
		c-23.328-6.259-43.795-19.805-66.436-27.828c-26.491-9.387-53.817-7.633-81.414-7.793c-40.588-0.236-80.961-8.01-104.857-44.002
		c-12.481-18.799-18.735-42.542-35.4-58.379c-16.129-15.327-38.991-19.01-59.425-25.575c-29.473-9.47-51.907-26.17-65.355-51.31
		C124.72,758.967,208.504,961.94,600.48,961.94c400.247,0,476.611-224.377,490.603-327.186
		C1075.711,661.004,1051.036,680.406,1027.637,699.794z"/>
	<path fill="#ED8AA8" d="M1081.996,484.241c-22.781-42.913-53.211-87.291-87.266-122.114
		c-33.656-34.414-76.601-54.051-121.182-70.402c-94.323-34.596-194.918-54.338-295.553-53.647
		c-106.903,0.734-215.092,25.448-307.446,80.507c-73.66,43.914-140.607,113.332-162.743,197.605
		c-12.105,37.82-20.309,77.532-10.663,116.789c9.918,40.364,36.568,65.352,75.398,77.828c20.434,6.566,43.296,10.248,59.425,25.575
		c16.664,15.836,22.919,39.579,35.4,58.379c23.896,35.992,64.269,43.766,104.857,44.002c27.597,0.161,54.923-1.594,81.414,7.793
		c22.641,8.023,43.108,21.569,66.436,27.828c41.578,11.156,69.174-11.127,104.991-27.431
		c43.573-19.835,77.702,21.644,121.061,12.025c41.22-9.144,61.464-52.665,107.373-48.765c35.926,3.052,75.698,17.744,102.435-15.549
		c11.991-14.931,16.959-33.867,27.359-49.781c11.61-17.762,28.15-31.671,44.345-45.089c28.447-23.569,58.81-47.135,72.007-83.035
		C1115.929,572.454,1103.329,524.428,1081.996,484.241z M260.262,648.873c-1.611,6.986-7.532,12.191-11.915,17.656
		c-3.969,4.949-8.481,9.789-13.118,14.128c-6.949,6.5-21.073,0.168-17.224-10.026c2.444-6.473,5.541-13.06,9.39-18.821
		c3.925-5.875,8.307-13.775,14.815-16.813C251.865,630.489,262.803,637.854,260.262,648.873z M235.483,424.969
		c-19.723,23.867-35.116,51.763-43.775,81.512c-4.631,15.907-7.195,32.153-7.67,48.71c-0.395,13.769,2.14,28.416-1.961,41.694
		c-1.284,4.159-7.395,6.658-10.564,2.789c-18.793-22.935-12.113-64.073-6.215-90.788c7.295-33.038,22.14-64.917,42.763-91.717
		c40.205-52.247,102.64-88.666,167.255-101.571c2.664-0.532,4.561,3.192,1.93,4.578
		C324.331,348.045,274.233,378.078,235.483,424.969z M322.421,448.654c3.438-5.353,11.512-8.554,17.256-4.525
		c9.841,6.903,10.754,17.012,11.637,28.298c0.816,10.431,0.451,21.217-3.433,31.022c-3.955,9.987-16.862,10.308-20.701,0
		c-3.245-8.713-4.189-17.854-5.678-26.987C319.939,466.871,316.791,457.422,322.421,448.654z M388.934,671.379
		c-4.914,6.576-14.671,8.698-21.809,4.354c-15.358-9.346-33.131-24.217-40.525-40.876c-3.473-7.823,2.344-19.291,12.223-15.899
		c17.519,6.015,34.276,18.858,48.79,30.223C394.327,654.44,393.473,665.304,388.934,671.379z M669.172,369.044
		c17.211,0.378,43.501-0.238,54.394,15.2c4.622,6.552,0.047,17.529-7.751,19.053c-9.965,1.948-16.515-2.368-25.458-6.053
		c-7.787-3.208-15.747-6.124-23.871-8.346C655.514,385.897,657.727,368.792,669.172,369.044z M572.85,320.03
		c12.111-10.418,26.017-20.305,40.501-27.163c17.087-8.089,32.127,16.828,14.989,25.642c-14.466,7.44-30.993,12.994-46.874,16.321
		C573.502,336.499,565.66,326.215,572.85,320.03z M413.978,350.923c-4.391-5.949,2.89-12.094,8.586-11.169
		c12.46,2.022,26.707,9.02,37.093,16.068c13.671,9.277,1.696,30.35-13.04,22.308C434.718,371.637,422.052,361.863,413.978,350.923z
		 M514.574,739.509c-2.353,6.146-6.223,11.217-9.419,16.933c-2.812,5.029-6.813,10.535-8.629,15.924
		c-2.988,8.861-15.731,7.181-16.165-2.188c-0.385-8.308-1.05-15.34,1.878-23.398c3.011-8.288,7.281-15.797,14.511-20.974
		C505.123,719.811,518.251,729.903,514.574,739.509z M682.764,737.302c-2.312,15.522-9.972,35.92-20.906,47.34
		c-4.676,4.883-14.703,2.943-15.997-4.223c-3.145-17.414,2.391-38.695,9.776-54.553c3.164-6.796,12.227-8.609,18.534-6.073
		C681.568,722.768,683.854,729.988,682.764,737.302z M760.915,559.619c-39.812,91.55-163.995,98.709-246.264,68.779
		c-24.23-8.815-45.584-23.177-61.636-43.459c-13.18-16.653-31.727-46.972-11.881-65.701c9.963-9.403,21.676-14.368,28.599-27.192
		c4.869-9.02,5.138-19.687,10.179-28.56c6.689-11.772,19.454-15.833,32.491-15.002c8.799,0.561,17.012,3.928,25.561,5.688
		c17.217,3.544,25.981-2.42,36.341-15.363c7.045-8.802,14.635-15.076,26.49-15.801c34.007-2.08,38.605,42.218,59.331,59.267
		c26.296,21.631,38.262-7.164,62.24-9.463c11.201-1.074,22.324,3.615,30.3,11.299C773.179,503.875,771.478,535.329,760.915,559.619z
		 M774.685,341.677c-12.274-11.256-24.424-22.729-33.68-36.593c-5.117-7.665,4.518-14.114,11.259-11.259
		c14.53,6.153,27.399,15.584,40.061,24.99C809.451,331.536,789.992,355.715,774.685,341.677z M840.236,660.441
		c-12.641-1.807-24.681-4.388-36.951-7.863c-9.917-2.809-7.244-16.539,2.331-17.219c12.803-0.908,25.214-0.999,38.04-0.197
		C862.364,636.331,858.69,663.079,840.236,660.441z M913.632,713.104c-10.314,4.061-27.068,13.21-37.506,5.55
		c-8.996-6.602-4.438-17.461,2.732-23.514c6.357-5.367,14.364-9.244,21.611-13.257c9.012-4.99,20.235-1.317,24.232,8.168
		C929,700.256,923.098,709.377,913.632,713.104z M873.532,474.414c2.295-14.371,26.854-10.896,25.349,3.431
		c-1.804,17.175-2.511,41.865-13.757,55.716c-3.092,3.807-10.774,2.871-12.785-1.647
		C865.058,515.549,870.797,491.537,873.532,474.414z M998.427,600.229c-1.676,3.418-6.889,3.105-8.65,0
		c-10.826-19.084-11.712-46.958-16.321-68.393c-5.376-25.008-10.303-50.297-20.949-73.753c-8.789-19.368-20.99-37.128-35.911-52.283
		c-14.077-14.298-32.656-22.427-46.744-36.136c-3.239-3.152-2.104-10.199,2.895-10.964c44.636-6.829,86.698,43.425,105.392,77.873
		c13.272,24.457,22.11,52.077,25.689,79.664C1007.062,541.155,1009.73,577.172,998.427,600.229z"/>
</g>
</svg>
